<svg width="236" height="86" viewBox="0 0 236 86" fill="none" xmlns="http://www.w3.org/2000/svg">
<g clip-path="url(#clip0_4_5)">
<path opacity="0.2" d="M44 0H44C24.1177 0 8 15.8939 8 35.5V35.5C8 55.1061 24.1177 71 44 71H44C63.8823 71 80 55.1061 80 35.5V35.5C80 15.8939 63.8823 0 44 0Z" fill="#44D7A8"/>
<path d="M87 53.5C87 40.5213 76.2548 30 63 30C49.7452 30 39 40.5213 39 53.5C39 66.4787 49.7452 77 63 77C76.2548 77 87 66.4787 87 53.5Z" fill="#44D7A8"/>
<path d="M114.554 30.9062C114.421 29.6657 113.863 28.6998 112.878 28.0085C111.902 27.3172 110.634 26.9716 109.071 26.9716C107.973 26.9716 107.03 27.1373 106.244 27.4688C105.458 27.8002 104.857 28.25 104.44 28.8182C104.024 29.3864 103.811 30.035 103.801 30.7642C103.801 31.3703 103.938 31.8958 104.213 32.3409C104.497 32.786 104.881 33.1648 105.364 33.4773C105.847 33.7803 106.382 34.036 106.969 34.2443C107.556 34.4527 108.148 34.6278 108.744 34.7699L111.472 35.4517C112.57 35.7074 113.626 36.053 114.639 36.4886C115.662 36.9242 116.576 37.4735 117.381 38.1364C118.195 38.7992 118.839 39.5994 119.312 40.5369C119.786 41.4744 120.023 42.5729 120.023 43.8324C120.023 45.5369 119.587 47.0379 118.716 48.3352C117.845 49.6231 116.585 50.6316 114.938 51.3608C113.299 52.0805 111.315 52.4403 108.986 52.4403C106.723 52.4403 104.758 52.09 103.091 51.3892C101.434 50.6884 100.136 49.6657 99.1989 48.321C98.2708 46.9763 97.7689 45.3381 97.6932 43.4062H102.878C102.954 44.4195 103.266 45.2623 103.815 45.9347C104.365 46.607 105.08 47.1089 105.96 47.4403C106.85 47.7718 107.845 47.9375 108.943 47.9375C110.089 47.9375 111.093 47.767 111.955 47.4261C112.826 47.0758 113.508 46.5928 114 45.9773C114.492 45.3523 114.743 44.6231 114.753 43.7898C114.743 43.0322 114.521 42.4072 114.085 41.9148C113.65 41.4129 113.039 40.9962 112.253 40.6648C111.476 40.3239 110.567 40.0208 109.526 39.7557L106.216 38.9034C103.82 38.2879 101.926 37.3551 100.534 36.1051C99.1515 34.8456 98.4602 33.1742 98.4602 31.0909C98.4602 29.3769 98.9242 27.8759 99.8523 26.5881C100.79 25.3002 102.063 24.3011 103.673 23.5909C105.283 22.8712 107.106 22.5114 109.142 22.5114C111.206 22.5114 113.015 22.8712 114.568 23.5909C116.131 24.3011 117.357 25.2907 118.247 26.5597C119.137 27.8191 119.597 29.268 119.625 30.9062H114.554ZM135.388 30.1818V34.1591H122.846V30.1818H135.388ZM125.942 24.9545H131.085V45.4375C131.085 46.1288 131.189 46.6591 131.397 47.0284C131.615 47.3883 131.899 47.6345 132.249 47.767C132.6 47.8996 132.988 47.9659 133.414 47.9659C133.736 47.9659 134.03 47.9422 134.295 47.8949C134.569 47.8475 134.778 47.8049 134.92 47.767L135.786 51.7869C135.512 51.8816 135.119 51.9858 134.607 52.0994C134.105 52.2131 133.49 52.2794 132.761 52.2983C131.473 52.3362 130.313 52.142 129.281 51.7159C128.248 51.2803 127.429 50.608 126.823 49.6989C126.227 48.7898 125.933 47.6534 125.942 46.2898V24.9545ZM148.972 52.4261C146.841 52.4261 144.994 51.9574 143.432 51.0199C141.869 50.0824 140.657 48.7708 139.795 47.0852C138.943 45.3996 138.517 43.4299 138.517 41.1761C138.517 38.9223 138.943 36.9479 139.795 35.2528C140.657 33.5578 141.869 32.2415 143.432 31.304C144.994 30.3665 146.841 29.8977 148.972 29.8977C151.102 29.8977 152.949 30.3665 154.511 31.304C156.074 32.2415 157.281 33.5578 158.134 35.2528C158.995 36.9479 159.426 38.9223 159.426 41.1761C159.426 43.4299 158.995 45.3996 158.134 47.0852C157.281 48.7708 156.074 50.0824 154.511 51.0199C152.949 51.9574 151.102 52.4261 148.972 52.4261ZM149 48.3068C150.155 48.3068 151.121 47.9896 151.898 47.3551C152.674 46.7112 153.252 45.8494 153.631 44.7699C154.019 43.6903 154.213 42.4877 154.213 41.1619C154.213 39.8267 154.019 38.6193 153.631 37.5398C153.252 36.4508 152.674 35.5843 151.898 34.9403C151.121 34.2964 150.155 33.9744 149 33.9744C147.816 33.9744 146.831 34.2964 146.045 34.9403C145.269 35.5843 144.687 36.4508 144.298 37.5398C143.92 38.6193 143.73 39.8267 143.73 41.1619C143.73 42.4877 143.92 43.6903 144.298 44.7699C144.687 45.8494 145.269 46.7112 146.045 47.3551C146.831 47.9896 147.816 48.3068 149 48.3068ZM163.79 52V30.1818H168.776V33.8182H169.004C169.401 32.5587 170.083 31.5881 171.049 30.9062C172.024 30.215 173.137 29.8693 174.387 29.8693C174.671 29.8693 174.988 29.8835 175.339 29.9119C175.699 29.9309 175.997 29.964 176.234 30.0114V34.7415C176.016 34.6657 175.67 34.5994 175.197 34.5426C174.733 34.4763 174.283 34.4432 173.847 34.4432C172.91 34.4432 172.067 34.6468 171.319 35.054C170.58 35.4517 169.998 36.0057 169.572 36.7159C169.146 37.4261 168.933 38.2453 168.933 39.1733V52H163.79ZM188.411 52.4261C186.223 52.4261 184.334 51.9716 182.743 51.0625C181.161 50.1439 179.945 48.8466 179.092 47.1705C178.24 45.4848 177.814 43.5009 177.814 41.2188C177.814 38.9744 178.24 37.0047 179.092 35.3097C179.954 33.6051 181.157 32.2794 182.7 31.3324C184.244 30.3759 186.057 29.8977 188.141 29.8977C189.485 29.8977 190.754 30.1155 191.947 30.5511C193.15 30.9773 194.211 31.6402 195.129 32.5398C196.057 33.4394 196.786 34.5852 197.317 35.9773C197.847 37.3598 198.112 39.0076 198.112 40.9205V42.4972H180.229V39.0312H193.183C193.174 38.0464 192.961 37.1705 192.544 36.4034C192.127 35.6269 191.545 35.0161 190.797 34.571C190.058 34.1259 189.196 33.9034 188.212 33.9034C187.161 33.9034 186.237 34.1591 185.442 34.6705C184.646 35.1723 184.026 35.8352 183.581 36.6591C183.145 37.4735 182.923 38.3684 182.913 39.3438V42.3693C182.913 43.6383 183.145 44.7273 183.609 45.6364C184.073 46.536 184.722 47.2273 185.555 47.7102C186.389 48.1837 187.364 48.4205 188.482 48.4205C189.23 48.4205 189.907 48.3163 190.513 48.108C191.119 47.8902 191.644 47.5729 192.089 47.1562C192.535 46.7396 192.871 46.2235 193.098 45.608L197.899 46.1477C197.596 47.4167 197.018 48.5246 196.166 49.4716C195.323 50.4091 194.244 51.1383 192.928 51.6591C191.611 52.1705 190.106 52.4261 188.411 52.4261ZM207.604 22.9091V52H202.462V22.9091H207.604ZM216.088 60.1818C215.387 60.1818 214.739 60.125 214.142 60.0114C213.555 59.9072 213.086 59.7841 212.736 59.642L213.929 55.6364C214.677 55.8542 215.345 55.9583 215.932 55.9489C216.519 55.9394 217.035 55.7547 217.48 55.3949C217.935 55.0445 218.318 54.4574 218.631 53.6335L219.071 52.4545L211.159 30.1818H216.614L221.642 46.6591H221.869L226.912 30.1818H232.381L223.645 54.642C223.238 55.7973 222.698 56.7869 222.026 57.6108C221.353 58.4441 220.529 59.0786 219.554 59.5142C218.588 59.9593 217.433 60.1818 216.088 60.1818Z" fill="#44D7A8"/>
</g>
<defs>
<clipPath id="clip0_4_5">
<rect width="236" height="86" fill="white"/>
</clipPath>
</defs>
</svg>
