<svg width="240" height="88" viewBox="0 0 240 88" fill="none" xmlns="http://www.w3.org/2000/svg">
<path opacity="0.2" d="M40.0888 0H40.0887C17.9483 0 0 17.9775 0 40.1539V40.154C0 62.3303 17.9483 80.3078 40.0887 80.3078H40.0888C62.2291 80.3078 80.1775 62.3303 80.1775 40.154V40.1539C80.1775 17.9775 62.2291 0 40.0888 0Z" fill="white"/>
<path d="M88.5284 60.2304C88.5284 45.4462 76.5629 33.4612 61.8026 33.4612C47.0423 33.4612 35.0768 45.4462 35.0768 60.2304C35.0768 75.0147 47.0423 86.9997 61.8026 86.9997C76.5629 86.9997 88.5284 75.0147 88.5284 60.2304Z" fill="white"/>
<path d="M113.351 28.3261C113.208 26.9949 112.611 25.9583 111.555 25.2164C110.509 24.4745 109.151 24.1036 107.476 24.1036C106.3 24.1036 105.289 24.2815 104.447 24.6372C103.605 24.9929 102.961 25.4756 102.514 26.0853C102.069 26.6951 101.841 27.3912 101.83 28.1737C101.83 28.8242 101.977 29.3881 102.271 29.8658C102.576 30.3435 102.987 30.75 103.504 31.0854C104.022 31.4105 104.595 31.6849 105.224 31.9085C105.853 32.1321 106.487 32.32 107.126 32.4725L110.049 33.2042C111.225 33.4786 112.357 33.8495 113.442 34.317C114.538 34.7845 115.517 35.374 116.38 36.0854C117.252 36.7967 117.942 37.6554 118.449 38.6615C118.957 39.6676 119.211 40.8465 119.211 42.1982C119.211 44.0274 118.743 45.6382 117.81 47.0304C116.877 48.4126 115.527 49.4949 113.762 50.2774C112.006 51.0498 109.881 51.4359 107.385 51.4359C104.961 51.4359 102.855 51.06 101.069 50.3079C99.2938 49.5558 97.9031 48.4583 96.899 47.0152C95.9046 45.5721 95.3669 43.814 95.2858 41.7408H100.841C100.922 42.8282 101.257 43.7327 101.845 44.4543C102.434 45.1758 103.2 45.7144 104.143 46.07C105.097 46.4258 106.163 46.6036 107.339 46.6036C108.567 46.6036 109.643 46.4207 110.566 46.0548C111.499 45.6789 112.23 45.1605 112.757 44.5C113.284 43.8293 113.553 43.0467 113.564 42.1524C113.553 41.3394 113.316 40.6687 112.848 40.1402C112.382 39.6016 111.728 39.1544 110.886 38.7988C110.053 38.4329 109.079 38.1077 107.964 37.8232L104.417 36.9085C101.85 36.248 99.8209 35.2469 98.3295 33.9054C96.8482 32.5538 96.1076 30.7601 96.1076 28.5243C96.1076 26.6849 96.6047 25.0741 97.5991 23.6921C98.6038 22.3099 99.9677 21.2377 101.693 20.4756C103.418 19.7032 105.371 19.3171 107.552 19.3171C109.764 19.3171 111.702 19.7032 113.366 20.4756C115.041 21.2377 116.354 22.2997 117.308 23.6616C118.261 25.0131 118.754 26.5681 118.784 28.3261H113.351ZM135.673 27.5487V31.817H122.235V27.5487H135.673ZM125.552 21.9389H131.063V43.9207C131.063 44.6626 131.174 45.2317 131.397 45.628C131.631 46.0142 131.935 46.2785 132.31 46.4206C132.686 46.5629 133.102 46.6341 133.558 46.6341C133.903 46.6341 134.218 46.6087 134.502 46.5579C134.796 46.507 135.019 46.4613 135.172 46.4206L136.099 50.7347C135.806 50.8363 135.385 50.9481 134.836 51.0701C134.298 51.1921 133.639 51.2632 132.858 51.2835C131.478 51.3242 130.236 51.1158 129.13 50.6585C128.023 50.191 127.146 49.4695 126.496 48.4939C125.858 47.5183 125.543 46.2987 125.552 44.8354V21.9389ZM150.227 51.4207C147.944 51.4207 145.965 50.9177 144.292 49.9116C142.617 48.9055 141.318 47.4979 140.395 45.689C139.482 43.88 139.026 41.7662 139.026 39.3475C139.026 36.9288 139.482 34.8099 140.395 32.9908C141.318 31.1718 142.617 29.7591 144.292 28.753C145.965 27.7469 147.944 27.2438 150.227 27.2438C152.509 27.2438 154.488 27.7469 156.162 28.753C157.837 29.7591 159.13 31.1718 160.044 32.9908C160.966 34.8099 161.428 36.9288 161.428 39.3475C161.428 41.7662 160.966 43.88 160.044 45.689C159.13 47.4979 157.837 48.9055 156.162 49.9116C154.488 50.9177 152.509 51.4207 150.227 51.4207ZM150.257 46.9999C151.495 46.9999 152.53 46.6595 153.362 45.9786C154.194 45.2876 154.813 44.3627 155.219 43.2043C155.635 42.0457 155.843 40.7551 155.843 39.3322C155.843 37.8994 155.635 36.6036 155.219 35.4451C154.813 34.2764 154.194 33.3465 153.362 32.6554C152.53 31.9644 151.495 31.6188 150.257 31.6188C148.989 31.6188 147.933 31.9644 147.091 32.6554C146.26 33.3465 145.636 34.2764 145.219 35.4451C144.814 36.6036 144.611 37.8994 144.611 39.3322C144.611 40.7551 144.814 42.0457 145.219 43.2043C145.636 44.3627 146.26 45.2876 147.091 45.9786C147.933 46.6595 148.989 46.9999 150.257 46.9999ZM166.104 50.9634V27.5487H171.446V31.4512H171.69C172.116 30.0995 172.846 29.0579 173.881 28.3261C174.926 27.5844 176.118 27.2134 177.458 27.2134C177.762 27.2134 178.102 27.2286 178.478 27.2591C178.863 27.2795 179.183 27.315 179.437 27.3659V32.4421C179.203 32.3607 178.832 32.2896 178.326 32.2286C177.828 32.1575 177.346 32.1219 176.879 32.1219C175.875 32.1219 174.972 32.3404 174.171 32.7774C173.379 33.2042 172.755 33.7988 172.299 34.5609C171.842 35.3231 171.614 36.2022 171.614 37.1981V50.9634H166.104ZM192.483 51.4207C190.139 51.4207 188.115 50.9329 186.411 49.9573C184.716 48.9715 183.413 47.5792 182.499 45.7805C181.586 43.9715 181.129 41.8424 181.129 39.3933C181.129 36.9847 181.586 34.8709 182.499 33.0518C183.422 31.2225 184.711 29.7998 186.364 28.7835C188.019 27.757 189.961 27.2438 192.194 27.2438C193.634 27.2438 194.994 27.4776 196.272 27.945C197.561 28.4024 198.698 29.1138 199.681 30.0793C200.676 31.0447 201.457 32.2743 202.026 33.7683C202.593 35.2519 202.877 37.0203 202.877 39.0732V40.7653H183.717V37.0456H197.596C197.587 35.9888 197.358 35.0488 196.912 34.2256C196.465 33.3922 195.841 32.7368 195.04 32.2591C194.248 31.7814 193.324 31.5426 192.27 31.5426C191.144 31.5426 190.154 31.8171 189.302 32.3659C188.449 32.9044 187.785 33.6158 187.308 34.5C186.841 35.374 186.603 36.3343 186.593 37.3811V40.628C186.593 41.9899 186.841 43.1585 187.338 44.1341C187.836 45.0996 188.531 45.8415 189.423 46.3597C190.317 46.8678 191.362 47.122 192.559 47.122C193.361 47.122 194.086 47.0101 194.736 46.7866C195.385 46.5529 195.947 46.2123 196.424 45.7652C196.902 45.3181 197.262 44.7642 197.505 44.1037L202.649 44.6829C202.324 46.0447 201.705 47.2337 200.792 48.25C199.889 49.2561 198.733 50.0386 197.323 50.5975C195.912 51.1464 194.299 51.4207 192.483 51.4207ZM213.047 19.7439V50.9634H207.538V19.7439H213.047ZM222.137 59.7439C221.386 59.7439 220.692 59.6829 220.052 59.561C219.423 59.4492 218.921 59.3171 218.546 59.1646L219.824 54.8659C220.626 55.0996 221.341 55.2113 221.97 55.2012C222.599 55.191 223.152 54.9928 223.629 54.6067C224.116 54.2306 224.527 53.6006 224.862 52.7164L225.333 51.4511L216.856 27.5487H222.701L228.088 45.2317H228.331L233.734 27.5487H239.594L230.234 53.7987C229.798 55.0385 229.219 56.1005 228.499 56.9847C227.778 57.879 226.896 58.5599 225.851 59.0274C224.816 59.5051 223.578 59.7439 222.137 59.7439Z" fill="white"/>
</svg>
